HIERARCHY
ROOT Hips
{
	OFFSET 0.000000 0.000000 0.000000
	CHANNELS 6 Xposition Yposition Zposition Xrotation Yrotation Zrotation
	JOINT LeftUpLeg_virtual
	{
		OFFSET 0.000000 0.000000 0.000000
		CHANNELS 3 Xrotation Yrotation Zrotation
		JOINT LeftUpLeg
		{
			OFFSET 15.427100 -6.655098 0.678600
			CHANNELS 3 Xrotation Yrotation Zrotation
			JOINT LeftLeg
			{
				OFFSET 4.081073 -39.591068 13.024000
				CHANNELS 3 Xrotation Yrotation Zrotation
				JOINT LeftFoot
				{
					OFFSET -4.081074 -37.707932 -15.979700
					CHANNELS 3 Xrotation Yrotation Zrotation
					JOINT LeftToeBase
					{
						OFFSET 5.346399 -15.068900 20.645000
						CHANNELS 3 Xrotation Yrotation Zrotation
						JOINT LeftToe_End
						{
							OFFSET 2.754700 0.931300 11.300900
							CHANNELS 3 Xrotation Yrotation Zrotation
							End Site
							{
								OFFSET 0 0 0
							}
						}
					}
				}
			}
		}
	}
	JOINT RightUpLeg_virtual
	{
		OFFSET 0.000000 0.000000 0.000000
		CHANNELS 3 Xrotation Yrotation Zrotation
		JOINT RightUpLeg
		{
			OFFSET -15.569500 -6.655098 0.678600
			CHANNELS 3 Xrotation Yrotation Zrotation
			JOINT RightLeg
			{
				OFFSET -4.081825 -39.591045 13.023800
				CHANNELS 3 Xrotation Yrotation Zrotation
				JOINT RightFoot
				{
					OFFSET 4.081824 -37.707954 -15.979600
					CHANNELS 3 Xrotation Yrotation Zrotation
					JOINT RightToeBase
					{
						OFFSET -5.346400 -15.068900 20.645000
						CHANNELS 3 Xrotation Yrotation Zrotation
						JOINT RightToe_End
						{
							OFFSET -2.754700 0.931300 11.300900
							CHANNELS 3 Xrotation Yrotation Zrotation
							End Site
							{
								OFFSET 0 0 0
							}
						}
					}
				}
			}
		}
	}
	JOINT Spine_virtual
	{
		OFFSET 0.000000 0.000000 0.000000
		CHANNELS 3 Xrotation Yrotation Zrotation
		JOINT Spine
		{
			OFFSET -0.279200 12.230698 -2.892100
			CHANNELS 3 Xrotation Yrotation Zrotation
			JOINT Spine1
			{
				OFFSET -0.232667 10.192268 -1.242267
				CHANNELS 3 Xrotation Yrotation Zrotation
				JOINT Spine1_split
				{
					OFFSET -0.232667 10.192268 -1.242267
					CHANNELS 3 Xrotation Yrotation Zrotation
					JOINT Spine2
					{
						OFFSET -0.232667 10.192268 -1.242267
						CHANNELS 3 Xrotation Yrotation Zrotation
						JOINT Neck_virtual
						{
							OFFSET 0.000000 0.000000 0.000000
							CHANNELS 3 Xrotation Yrotation Zrotation
							JOINT Neck
							{
								OFFSET -0.418800 17.814194 8.416900
								CHANNELS 3 Xrotation Yrotation Zrotation
								JOINT Head
								{
									OFFSET 0.000000 7.031097 3.806800
									CHANNELS 3 Xrotation Yrotation Zrotation
									JOINT HeadTop_End
									{
										OFFSET 0.000000 24.646606 12.978600
										CHANNELS 3 Xrotation Yrotation Zrotation
										End Site
										{
											OFFSET 0 0 0
										}
									}
								}
							}
						}
						JOINT LeftShoulder_virtual
						{
							OFFSET 0.000000 0.000000 0.000000
							CHANNELS 3 Xrotation Yrotation Zrotation
							JOINT LeftShoulder
							{
								OFFSET 8.476499 7.247704 -3.868750
								CHANNELS 3 Xrotation Yrotation Zrotation
								JOINT LeftShoulder_split
								{
									OFFSET 8.476499 7.247704 -3.868750
									CHANNELS 3 Xrotation Yrotation Zrotation
									JOINT LeftArm
									{
										OFFSET 9.308998 -2.777710 0.208600
										CHANNELS 3 Xrotation Yrotation Zrotation
										JOINT LeftForeArm
										{
											OFFSET 29.972298 0.000000 0.000000
											CHANNELS 3 Xrotation Yrotation Zrotation
											JOINT LeftHand
											{
												OFFSET 26.026505 0.000000 0.000000
												CHANNELS 3 Xrotation Yrotation Zrotation
												End Site
												{
													OFFSET 0 0 0
												}
											}
										}
									}
								}
							}
						}
						JOINT RightShoulder_virtual
						{
							OFFSET 0.000000 0.000000 0.000000
							CHANNELS 3 Xrotation Yrotation Zrotation
							JOINT RightShoulder
							{
								OFFSET -7.570500 7.247704 -3.868750
								CHANNELS 3 Xrotation Yrotation Zrotation
								JOINT RightShoulder_split
								{
									OFFSET -7.570500 7.247704 -3.868750
									CHANNELS 3 Xrotation Yrotation Zrotation
									JOINT RightArm
									{
										OFFSET -9.308998 -2.777710 0.208500
										CHANNELS 3 Xrotation Yrotation Zrotation
										JOINT RightForeArm
										{
											OFFSET -29.972300 0.000000 0.000000
											CHANNELS 3 Xrotation Yrotation Zrotation
											JOINT RightHand
											{
												OFFSET -26.026505 0.000000 0.000000
												CHANNELS 3 Xrotation Yrotation Zrotation
												End Site
												{
													OFFSET 0 0 0
												}
											}
										}
									}
								}
							}
						}
					}
				}
			}
		}
	}
}
MOTION
Frames: 11
Frame Time: 0.03333333
-10.612753 86.419319 89.072754 0.000000 0.000000 0.000000 23.498328 13.638288 -7.426565 -34.336269 -2.046590 -8.153133 35.716739 -4.288137 -2.859039 -23.995781 1.852890 11.553554 -0.349015 -0.000002 0.000002 0.000000 0.000000 0.000000 23.498328 13.638288 -7.426565 -52.956571 -6.160525 -14.657875 50.827160 -6.855170 1.171979 7.161020 -4.389724 15.522853 -24.689028 -0.003844 0.016304 0.000000 0.000000 0.000000 23.498328 13.638288 -7.426565 9.563947 0.546671 -2.769062 -0.471734 1.782877 -0.358115 0.000000 0.000000 0.000000 0.000000 0.000000 0.000000 -0.315419 2.367534 -0.492588 -11.049976 -0.300772 0.541620 -9.090195 2.277658 -2.833870 0.000000 0.000000 0.000000 -0.315419 2.367534 -0.492588 0.804512 -1.055563 -19.731155 0.000000 0.000000 0.000000 11.314136 -4.215695 -51.272553 -0.000009 -61.671800 -0.000003 0.000000 0.000000 0.000000 -0.315419 2.367534 -0.492588 0.318334 6.828683 17.985684 0.000000 0.000000 0.000000 14.222254 -10.989033 46.953855 -0.000024 67.377808 -0.000002 0.000000 0.000000 0.000000 
-10.239234 86.827469 94.985306 0.000000 0.000000 0.000000 24.034394 14.799777 -8.251676 -28.689329 -5.606773 -6.452589 32.837989 -2.541646 -3.681387 -27.311457 0.754675 10.122291 -0.363121 0.000009 0.000001 0.000000 0.000000 0.000000 24.034394 14.799777 -8.251676 -58.035011 -4.986212 -15.025173 44.702724 -6.148366 0.789440 10.796398 -6.613023 15.428369 -15.699996 0.120996 -1.465847 0.000000 0.000000 0.000000 24.034394 14.799777 -8.251676 9.244874 -0.055441 -2.257120 -0.374507 1.775976 -0.381386 0.000000 0.000000 0.000000 0.000000 0.000000 0.000000 -0.232033 2.353975 -0.505843 -11.041540 -0.226220 0.447396 -9.369443 2.134335 -2.939959 0.000000 0.000000 0.000000 -0.232033 2.353975 -0.505843 0.850971 -1.055166 -19.445714 0.000000 0.000000 0.000000 11.378951 -4.063369 -51.572627 0.000008 -61.739617 0.000010 0.000000 0.000000 0.000000 -0.232033 2.353975 -0.505843 0.330578 6.717009 17.586540 0.000000 0.000000 0.000000 14.906755 -11.096834 47.280731 -0.000026 67.421159 0.000003 0.000000 0.000000 0.000000 
-9.917793 86.447037 100.900780 0.000000 0.000000 0.000000 24.344456 15.657532 -8.525212 -22.835216 -8.354192 -4.771121 30.392699 -0.496367 -4.356231 -30.933005 -0.485226 8.480502 -0.344512 0.000007 -0.000002 0.000000 0.000000 0.000000 24.344456 15.657532 -8.525212 -63.134519 -1.457036 -15.142311 40.825854 -8.807306 0.544810 13.265722 -5.049392 17.012743 -10.518633 0.000003 0.000001 0.000000 0.000000 0.000000 24.344456 15.657532 -8.525212 8.869885 -0.676936 -2.414063 -0.280804 1.810328 -0.395184 0.000000 0.000000 0.000000 0.000000 0.000000 0.000000 -0.152851 2.439002 -0.533951 -11.165467 -0.164568 0.434152 -9.915531 2.229083 -3.134630 0.000000 0.000000 0.000000 -0.152851 2.439002 -0.533951 0.890495 -1.054644 -19.202923 0.000000 0.000000 0.000000 11.762125 -4.398510 -51.352975 0.000022 -61.704352 0.000029 0.000000 0.000000 0.000000 -0.152851 2.439002 -0.533951 0.386611 5.917543 17.090624 0.000000 0.000000 0.000000 15.677202 -11.013511 47.931764 -0.000003 67.967124 0.000003 0.000000 0.000000 0.000000 
-9.653098 85.138199 106.616028 0.000000 0.000000 0.000000 24.542832 16.734609 -8.157588 -17.189428 -10.902088 -3.392016 28.502504 1.364776 -5.554176 -34.746347 -1.694157 7.185198 -0.371581 0.000003 -0.000001 0.000000 0.000000 0.000000 24.542832 16.734609 -8.157588 -67.137577 1.164086 -15.032463 40.544662 -9.142104 1.287060 8.963333 -2.154502 16.751939 -5.920129 0.000001 0.000003 0.000000 0.000000 0.000000 24.542832 16.734609 -8.157588 8.603979 -1.536755 -3.201340 -0.193264 1.830916 -0.399965 0.000000 0.000000 0.000000 0.000000 0.000000 0.000000 -0.080073 2.550088 -0.552127 -11.349194 -0.106719 0.463409 -10.802972 2.392363 -3.333839 0.000000 0.000000 0.000000 -0.080073 2.550088 -0.552127 0.929118 -1.053972 -18.965699 0.000000 0.000000 0.000000 12.311458 -4.649084 -50.975560 -0.000012 -62.095654 -0.000019 0.000000 0.000000 0.000000 -0.080073 2.550088 -0.552127 0.419729 5.349367 16.868035 0.000000 0.000000 0.000000 16.513309 -11.074468 48.601236 0.000044 68.737508 -0.000036 0.000000 0.000000 0.000000 
-9.352852 83.779305 112.269012 0.000000 0.000000 0.000000 24.725754 17.885699 -8.089163 -11.763381 -13.228965 -1.785666 26.833465 3.639125 -6.497266 -37.177211 -3.157166 6.557582 -1.960413 -0.000002 0.000000 0.000000 0.000000 0.000000 24.725754 17.885699 -8.089163 -70.538068 2.558669 -14.689630 39.379278 -9.519485 1.346484 0.624110 0.351572 15.042751 0.069566 -0.000002 -0.000004 0.000000 0.000000 0.000000 24.725754 17.885699 -8.089163 8.548203 -2.336207 -3.578922 -0.115430 1.784952 -0.368406 0.000000 0.000000 0.000000 0.000000 0.000000 0.000000 -0.016091 2.602100 -0.532299 -11.543211 -0.023773 0.481229 -11.682099 2.611786 -3.571835 0.000000 0.000000 0.000000 -0.016091 2.602100 -0.532299 0.966240 -1.053175 -18.737584 0.000000 0.000000 0.000000 12.890244 -4.845128 -50.707980 0.000029 -62.162610 0.000046 0.000000 0.000000 0.000000 -0.016091 2.602100 -0.532299 0.466173 4.493187 16.464866 0.000000 0.000000 0.000000 17.176391 -10.524337 49.400969 -0.000061 69.143631 0.000047 0.000000 0.000000 0.000000 
-9.014702 82.426620 117.788788 0.000000 0.000000 0.000000 24.842771 19.085155 -8.621522 -7.438391 -15.603492 0.376379 27.388458 5.570990 -7.360158 -38.132533 -4.163808 5.846744 -6.997653 -0.000003 0.000001 0.000000 0.000000 0.000000 24.842771 19.085155 -8.621522 -73.076324 3.272153 -14.232838 36.841514 -10.377699 0.995445 -5.373558 0.802024 13.293354 8.166604 0.000000 0.000001 0.000000 0.000000 0.000000 24.842771 19.085155 -8.621522 8.748422 -3.010688 -3.289803 -0.057071 1.681108 -0.295428 0.000000 0.000000 0.000000 0.000000 0.000000 0.000000 0.037382 2.558250 -0.464643 -11.734191 0.092633 0.455017 -12.504905 2.976100 -3.825965 0.000000 0.000000 0.000000 0.037382 2.558250 -0.464643 0.999099 -1.052341 -18.535747 0.000000 0.000000 0.000000 13.416204 -5.030866 -50.764356 0.000005 -61.466512 0.000014 0.000000 0.000000 0.000000 0.037382 2.558250 -0.464643 0.494750 3.824030 16.050659 0.000000 0.000000 0.000000 17.727469 -10.312255 50.208195 0.000007 69.740302 0.000027 0.000000 0.000000 0.000000 
-8.570521 81.278763 123.410629 0.000000 0.000000 0.000000 24.770817 20.382377 -9.628921 -3.351805 -17.818833 3.195282 28.875704 6.094597 -8.391704 -37.642019 -3.879230 5.248124 -15.244374 -0.000006 0.000000 0.000000 0.000000 0.000000 24.770817 20.382377 -9.628921 -73.500055 1.538643 -14.029112 35.218610 -10.311279 1.574385 -8.234765 0.013945 9.608052 6.207009 -0.000004 -0.000004 0.000000 0.000000 0.000000 24.770817 20.382377 -9.628921 9.066014 -3.677325 -2.423511 -0.037751 1.490357 -0.165268 0.000000 0.000000 0.000000 0.000000 0.000000 0.000000 0.051797 2.369440 -0.346525 -11.905886 0.268341 0.340578 -13.135279 3.643599 -4.131534 0.000000 0.000000 0.000000 0.051797 2.369440 -0.346525 1.032003 -1.050995 -18.334284 0.000000 0.000000 0.000000 13.861112 -3.704936 -51.431202 0.000022 -60.970271 0.000030 0.000000 0.000000 0.000000 0.051797 2.369440 -0.346525 0.508882 3.326463 15.590957 0.000000 0.000000 0.000000 18.005921 -9.876833 50.944930 -0.000022 69.876448 -0.000014 0.000000 0.000000 0.000000 
-8.006437 80.132111 129.094147 0.000000 0.000000 0.000000 24.557479 21.850923 -11.090976 -0.810169 -18.811796 5.750638 33.218847 5.824037 -8.579699 -34.694444 -2.398935 4.193484 -26.943592 0.000005 -0.000000 0.000000 0.000000 0.000000 24.557479 21.850923 -11.090976 -73.346649 -2.447390 -13.947042 35.325892 -9.347021 2.458428 -4.522232 -0.526963 4.629571 3.141864 0.000002 -0.000002 0.000000 0.000000 0.000000 24.557479 21.850923 -11.090976 9.365058 -4.306623 -1.019056 -0.054670 1.206747 -0.010326 0.000000 0.000000 0.000000 0.000000 0.000000 0.000000 0.028532 2.038678 -0.191309 -12.043366 0.485838 0.127691 -13.395528 4.487474 -4.632057 0.000000 0.000000 0.000000 0.028532 2.038678 -0.191309 1.065851 -1.052108 -18.121696 0.000000 0.000000 0.000000 14.192331 -1.851446 -52.616933 0.000032 -60.387553 0.000035 0.000000 0.000000 0.000000 0.028532 2.038678 -0.191309 0.510078 3.132401 15.339715 0.000000 0.000000 0.000000 18.341618 -9.466389 51.256482 0.000034 70.327801 -0.000034 0.000000 0.000000 0.000000 
-7.419898 79.055984 134.870407 0.000000 0.000000 0.000000 24.478549 23.484583 -12.377871 -1.137263 -20.214817 8.106302 40.674183 5.553729 -9.147946 -27.201746 2.330409 0.819460 -38.316303 -0.000005 -0.000001 0.000000 0.000000 0.000000 24.478549 23.484583 -12.377871 -73.115727 -6.977828 -13.910273 36.453160 -4.886952 2.553287 4.514232 -0.579511 1.583820 0.406528 -0.000003 0.000000 0.000000 0.000000 0.000000 24.478549 23.484583 -12.377871 9.415756 -4.745163 0.077329 -0.135257 0.950768 0.101544 0.000000 0.000000 0.000000 0.000000 0.000000 0.000000 -0.060204 1.684481 -0.048537 -12.134692 0.666462 -0.080017 -13.337359 5.131682 -5.298092 0.000000 0.000000 0.000000 -0.060204 1.684481 -0.048537 1.091560 -1.054068 -17.957973 0.000000 0.000000 0.000000 14.536094 -0.381613 -53.653530 0.000006 -59.911073 0.000001 0.000000 0.000000 0.000000 -0.060204 1.684481 -0.048537 0.505958 3.125452 15.264250 0.000000 0.000000 0.000000 18.637508 -9.040570 51.378008 -0.000048 70.359507 0.000042 0.000000 0.000000 0.000000 
-6.800728 78.293922 140.203568 0.000000 0.000000 0.000000 24.533778 24.735368 -13.695322 -4.431209 -21.075544 9.026088 48.685766 5.299787 -8.363712 -14.959298 6.497453 -2.463003 -44.963388 0.496745 -4.314452 0.000000 0.000000 0.000000 24.533778 24.735368 -13.695322 -72.180633 -10.120366 -13.183081 39.603414 -0.523423 1.333646 7.211315 -0.100524 2.801147 -1.578882 -0.000002 0.000000 0.000000 0.000000 0.000000 24.533778 24.735368 -13.695322 9.220194 -4.633747 0.840886 -0.255726 0.800163 0.143907 0.000000 0.000000 0.000000 0.000000 0.000000 0.000000 -0.188205 1.460640 0.020400 -12.163507 0.736324 -0.118922 -13.165737 5.373048 -5.625675 0.000000 0.000000 0.000000 -0.188205 1.460640 0.020400 1.091123 -1.053458 -17.961922 0.000000 0.000000 0.000000 14.999727 0.228044 -54.131244 -0.000003 -60.247138 0.000010 0.000000 0.000000 0.000000 -0.188205 1.460640 0.020400 0.503140 3.241711 15.331449 0.000000 0.000000 0.000000 18.515692 -8.729574 51.306339 0.000016 69.669821 -0.000025 0.000000 0.000000 0.000000 
-6.072920 78.054901 145.064987 0.000000 0.000000 0.000000 24.585104 25.426300 -15.159743 -8.678169 -20.895092 8.655541 53.328536 5.536186 -6.810693 1.038226 7.724181 -2.485574 -56.663605 5.049755 -9.498149 0.000000 0.000000 0.000000 24.585104 25.426300 -15.159743 -69.949962 -12.152526 -12.300660 43.146455 0.530377 0.928688 4.007707 0.309112 3.632926 -2.141689 -0.000007 -0.000002 0.000000 0.000000 0.000000 24.585104 25.426300 -15.159743 9.027169 -4.026563 1.562912 -0.368682 0.733476 0.153850 0.000000 0.000000 0.000000 0.000000 0.000000 0.000000 -0.308242 1.308570 0.045340 -12.168697 0.757573 -0.059695 -13.077884 5.461854 -5.712366 0.000000 0.000000 0.000000 -0.308242 1.308570 0.045340 1.072666 -1.052057 -18.079490 0.000000 0.000000 0.000000 15.500416 0.680729 -54.315539 0.000015 -61.050519 0.000012 0.000000 0.000000 0.000000 -0.308242 1.308570 0.045340 0.492463 3.699773 15.691105 0.000000 0.000000 0.000000 17.699571 -8.424454 50.957705 0.000030 68.058354 -0.000028 0.000000 0.000000 0.000000 
